<?xml version="1.0" encoding="UTF-8"?>
<svg width="165px" height="36px" viewBox="0 0 165 36" version="1.1" xmlns="http://www.w3.org/2000/svg" xmlns:xlink="http://www.w3.org/1999/xlink">
    <title>Logo</title>
    <g id="Navigation-Top" stroke="none" stroke-width="1" fill="none" fill-rule="evenodd">
        <g id="Top-&lt;-640" transform="translate(-21.000000, -20.000000)">
            <g id="Group" transform="translate(21.000000, 20.000000)">
                <path d="M20.5496273,1.1492821 L36.682426,12.4109661 C37.6512384,13.0873734 38.0535028,14.3188802 37.6681273,15.4329178 L31.1781592,34.2057181 C30.8089051,35.271386 29.7994056,36.0000019 28.665542,36.0000019 L8.92234358,36.0000019 C7.76928798,36.0000019 6.74750568,35.2475851 6.39360512,34.1558129 L0.328164149,15.4114202 C-0.0288071268,14.3096669 0.37729568,13.1019611 1.32998676,12.4363025 L17.497331,1.15004987 C18.4131734,0.510495556 19.6337849,0.509727783 20.5496273,1.1492821 Z" id="Fill-1" fill="#FFD24D"></path>
                <path d="M23.4034975,26.2227709 L22.3963011,27.2215228 C22.3095532,27.3067353 22.1706031,27.3067353 22.0838553,27.2215228 L19.2534185,24.4179548 C19.1674383,24.3319746 19.1666706,24.1945599 19.2526508,24.1093474 L19.5497431,23.8122552 L19.2564892,23.5305166 L18.980892,22.8426751 L14.6657618,27.1002293 C14.5114581,27.2529977 14.2619621,27.25223 14.1076584,27.1002293 L12.9453906,25.9487091 C12.7910869,25.795173 12.7910869,25.5464447 12.9453906,25.3952117 L17.1023787,21.2957996 L16.1796271,20.4083613 C14.770934,21.5867504 12.6644197,21.5506694 11.297949,20.2625021 C9.83475058,18.8822132 10.3583084,18.4561507 9.21216197,13.0324903 C12.1569831,13.676574 14.88148,13.6297455 16.345446,15.0108021 C17.7579775,16.3427272 17.857776,18.5229388 16.6125987,19.9769251 L17.5376533,20.865131 L19.0638015,21.4286083 L19.4177021,22.3782286 L19.4261465,22.4027944 L19.6833194,23.0937065 L19.9827147,23.3808189 L20.2575442,23.1067571 C20.3435243,23.0215446 20.4832421,23.0215446 20.56999,23.1067571 L23.4034975,25.9149311 C23.4894777,25.999376 23.4894777,26.1375584 23.4034975,26.2227709 M26.2984194,19.9846019 L24.9680296,18.1344927 L25.0670604,18.037765 L24.9296456,17.8658046 C24.4889972,18.0830581 23.9877021,18.1268159 23.5032959,17.9709768 L21.2056292,20.2463808 C20.9653453,20.4843617 20.8141123,20.7960398 20.7772636,21.1299807 L20.0425937,21.8585092 L19.5466723,20.9941013 L18.0105443,20.4206442 L19.0353973,19.4042357 C19.3731766,19.3681547 19.6886932,19.2184571 19.9274417,18.9804762 L22.2258761,16.7058399 C22.1015119,16.3289089 22.0930674,15.9343213 22.1967043,15.5666025 L21.2969831,14.9470846 L20.6790006,12.9449748 L20.9116077,12.713903 L22.9329095,13.3265118 L23.5616396,14.2216269 C24.2118647,14.041222 24.9373224,14.187849 25.4455267,14.6737905 C26.071186,15.272581 26.2116715,16.1776759 25.8677508,16.9146489 L26.0527617,17.0597405 L26.1525601,16.9622451 C26.1525601,16.9622451 27.6272737,17.8926734 28.0187906,18.2811196 C27.6879205,19.4572056 26.2984194,19.9846019 26.2984194,19.9846019" id="Fill-3" fill="#262626"></path>
                <path d="M116.882044,31.4974383 C116.770067,31.1902767 116.66369,30.9103116 116.564511,30.6559434 C116.462933,30.4015752 116.374951,30.1776032 116.298968,29.9832275 C116.222984,29.7888518 116.161397,29.6376707 116.115806,29.5272845 C116.075815,29.6408703 116.018227,29.7936512 115.942243,29.9880269 C115.867059,30.1816027 115.782277,30.4063746 115.684698,30.6599429 C115.588718,30.9143111 115.481541,31.1942762 115.362367,31.499838 C115.243192,31.8053998 115.121618,32.1261597 114.999244,32.4613178 L117.22917,32.4613178 C117.110795,32.1245599 116.99482,31.8038 116.882044,31.4974383 L116.882044,31.4974383 Z M118.223359,35.5289343 C118.136177,35.259368 118.043397,34.9826026 117.943418,34.699438 C117.844239,34.4138737 117.74506,34.131509 117.645881,33.8491443 L114.600129,33.8491443 C114.501749,34.1339087 114.402571,34.4162734 114.304191,34.7010378 C114.205012,34.9858022 114.113032,35.2617677 114.02825,35.5289343 L112.204638,35.5289343 C112.498175,34.6938387 112.776516,33.9211353 113.04046,33.211624 C113.303604,32.5029126 113.561149,31.8341962 113.813096,31.2078745 C114.065842,30.5807528 114.31299,29.9848273 114.557738,29.4208978 C114.802486,28.8585681 115.056831,28.307437 115.319976,27.7707041 L116.983622,27.7707041 C117.238768,28.307437 117.491514,28.8585681 117.741061,29.4208978 C117.989008,29.9848273 118.240155,30.5807528 118.492901,31.2078745 C118.744848,31.8341962 119.003193,32.5029126 119.266337,33.211624 C119.531081,33.9211353 119.809422,34.6938387 120.103759,35.5289343 L118.223359,35.5289343 Z M109.437226,35.5289343 L109.437226,32.9324589 C109.18208,32.9620552 108.934133,32.9836525 108.694184,32.9996505 C108.454235,33.0140487 108.225483,33.0204479 108.007929,33.0204479 C107.53603,33.0204479 107.106521,32.9788531 106.719403,32.8924639 C106.333885,32.8068746 106.005155,32.6532938 105.734812,32.4333213 C105.46527,32.2133488 105.257314,31.9181857 105.110945,31.5486319 C104.964576,31.179878 104.891792,30.7119364 104.891792,30.1448073 L104.891792,27.7707041 L106.646619,27.7707041 L106.646619,30.0536187 C106.646619,30.3599804 106.684211,30.6079494 106.759395,30.7991255 C106.833779,30.9887018 106.941756,31.1406829 107.080126,31.251869 C107.218497,31.363855 107.384862,31.4414453 107.58082,31.4814403 C107.775179,31.5230351 107.989533,31.5430326 108.221484,31.5430326 C108.402246,31.5430326 108.594205,31.5358335 108.801361,31.5206354 C109.007717,31.5062372 109.219672,31.48384 109.437226,31.4534438 L109.437226,27.7707041 L111.192853,27.7707041 L111.192853,35.5289343 L109.437226,35.5289343 Z M101.808447,35.5289343 L101.808447,30.4463696 C101.148587,31.2142737 100.525519,32.0325714 99.9408436,32.8980632 C99.355368,33.7643549 98.8122834,34.6410453 98.3091903,35.5289343 L96.8359033,35.5289343 L96.8359033,27.7707041 L98.5803327,27.7707041 L98.5803327,32.3485319 C98.8498754,31.9469821 99.1378142,31.5270346 99.4457488,31.0894892 C99.7528835,30.6527438 100.063218,30.2311965 100.374351,29.8240474 C100.685485,29.4168983 100.99102,29.035346 101.291756,28.6769908 C101.590893,28.3178357 101.865235,28.0162734 102.113182,27.7707041 L103.541678,27.7707041 L103.541678,35.5289343 L101.808447,35.5289343 Z M93.2462661,32.3781282 C92.9767234,32.2245474 92.5888058,32.147757 92.0873124,32.147757 L90.9843468,32.147757 L90.9843468,34.1515065 C91.1123196,34.1675045 91.2506902,34.1787031 91.4010582,34.1859022 C91.5514263,34.1931013 91.7161913,34.1971008 91.896153,34.1971008 C92.4208415,34.1971008 92.8447514,34.1219102 93.167083,33.9731288 C93.4902143,33.8235475 93.6509801,33.547582 93.6509801,33.1444324 C93.6509801,32.7852773 93.5166087,32.5309091 93.2462661,32.3781282 L93.2462661,32.3781282 Z M92.9871212,29.2809153 C92.7471722,29.1537312 92.3944471,29.091339 91.9297459,29.091339 C91.7793778,29.091339 91.618612,29.0929388 91.4466485,29.0969383 C91.2730854,29.1001379 91.1195181,29.1105366 90.9843468,29.1249348 L90.9843468,30.8151235 L91.8393651,30.8151235 C92.3800502,30.8151235 92.7655683,30.747132 92.9991186,30.6079494 C93.2318692,30.4703666 93.3478445,30.2479944 93.3478445,29.9416327 C93.3478445,29.6280719 93.22787,29.4088993 92.9871212,29.2809153 L92.9871212,29.2809153 Z M95.1594596,32.0925639 C95.3386215,32.4133238 95.4290023,32.7748786 95.4290023,33.1780282 C95.4290023,33.9915265 95.1306657,34.6042499 94.5347923,35.0145986 C93.9381191,35.4249473 93.0511076,35.6305216 91.8737578,35.6305216 C91.4466485,35.6305216 91.0203391,35.6169233 90.5964292,35.5913265 C90.1725193,35.5649298 89.7318129,35.5033375 89.2743102,35.4065496 L89.2743102,27.8818902 C89.6342337,27.8146986 90.0285499,27.763505 90.4556591,27.7307091 C90.8835682,27.6971133 91.2810837,27.6803154 91.6482057,27.6803154 C92.1433005,27.6803154 92.6000035,27.715511 93.0159151,27.7867021 C93.4318267,27.8570933 93.7901506,27.979478 94.0900868,28.1498567 C94.3908229,28.3226351 94.6251731,28.547407 94.7931374,28.8281719 C94.9619016,29.1081369 95.0466835,29.4528938 95.0466835,29.8640424 C95.0466835,30.4823651 94.7459475,30.9727038 94.1460749,31.3310591 C94.6411697,31.5166359 94.9794978,31.771804 95.1594596,32.0925639 L95.1594596,32.0925639 Z M85.8590359,30.6079494 C85.7654558,30.299188 85.6310843,30.0344211 85.4551217,29.8136487 C85.2783593,29.5936762 85.0608055,29.4232975 84.8024604,29.3041124 C84.5433155,29.1841274 84.2521773,29.1249348 83.9306457,29.1249348 C83.6003158,29.1249348 83.3075781,29.1865271 83.0524323,29.3089118 C82.7972865,29.4320964 82.5813324,29.6048748 82.4053698,29.8240474 C82.2294072,30.0456197 82.0934361,30.3103866 82.0006558,30.619148 C81.9062758,30.9295092 81.8598857,31.2710666 81.8598857,31.64382 C81.8598857,32.0245724 81.9062758,32.3685294 82.0006558,32.6740912 C82.0934361,32.9804529 82.2294072,33.2444199 82.4053698,33.4635925 C82.5813324,33.683565 82.7972865,33.8531438 83.0524323,33.9731288 C83.3075781,34.0931138 83.6003158,34.1515065 83.9306457,34.1515065 C84.2521773,34.1515065 84.5433155,34.0931138 84.8024604,33.9731288 C85.0608055,33.8531438 85.2783593,33.683565 85.4551217,33.4635925 C85.6310843,33.2444199 85.7654558,32.9804529 85.8590359,32.6740912 C85.9534158,32.3685294 86.0006058,32.0245724 86.0006058,31.64382 C86.0006058,31.2630676 85.9534158,30.9183106 85.8590359,30.6079494 L85.8590359,30.6079494 Z M87.5138842,33.395601 C87.3147266,33.9011378 87.0427843,34.3226851 86.6980576,34.6610428 C86.3533308,35.0018002 85.943018,35.2569683 85.4663193,35.4289468 C84.9888208,35.6001254 84.4777294,35.6857147 83.9306457,35.6857147 C83.397159,35.6857147 82.8948658,35.6001254 82.422966,35.4289468 C81.9502665,35.2569683 81.5375542,35.0018002 81.1848291,34.6610428 C80.8313042,34.3226851 80.5545631,33.9011378 80.3522061,33.395601 C80.1498491,32.8924639 80.0482706,32.3085369 80.0482706,31.64382 C80.0482706,30.9799029 80.1530484,30.3959759 80.3634037,29.8920389 C80.5729591,29.3881019 80.8568988,28.9641549 81.2128232,28.6209978 C81.5687475,28.2778407 81.9822597,28.0202729 82.4509601,27.8482944 C82.9196605,27.6771158 83.4123558,27.5907266 83.9306457,27.5907266 C84.4625326,27.5907266 84.9656257,27.6771158 85.4375254,27.8482944 C85.910225,28.0202729 86.3221375,28.2778407 86.6748625,28.6209978 C87.0275876,28.9641549 87.3051286,29.3881019 87.5082854,29.8920389 C87.7098426,30.3959759 87.811421,30.9799029 87.811421,31.64382 C87.811421,32.3085369 87.7122421,32.8924639 87.5138842,33.395601 L87.5138842,33.395601 Z M77.1624839,29.7408578 C77.0841005,29.5984756 76.9713245,29.4848898 76.8249556,29.3993005 C76.6793865,29.3137112 76.5002246,29.2529188 76.2906691,29.2201229 C76.0803138,29.1865271 75.8483631,29.1697292 75.5932173,29.1697292 C75.4652445,29.1697292 75.3396712,29.1737287 75.2156975,29.1809278 C75.0917239,29.1881269 74.9861463,29.195326 74.8957655,29.2025251 L74.8957655,31.4430451 L75.4468484,31.4430451 C76.0547193,31.4430451 76.512222,31.3606554 76.8193568,31.195876 C77.1272913,31.0318964 77.2808587,30.7263346 77.2808587,30.2783906 C77.2808587,30.0616177 77.241667,29.8824401 77.1624839,29.7408578 L77.1624839,29.7408578 Z M78.1470746,32.3109366 C77.5168086,32.7252848 76.6169998,32.9324589 75.4468484,32.9324589 L74.8957655,32.9324589 L74.8957655,35.5289343 L73.1401386,35.5289343 L73.1401386,27.8818902 C73.5232572,27.8082994 73.9279712,27.7547061 74.3558802,27.7251098 C74.7829895,27.6955135 75.1581098,27.6803154 75.4804413,27.6803154 C76.6425943,27.6803154 77.5352047,27.88349 78.1582723,28.2906391 C78.7813399,28.6977882 79.0916739,29.363305 79.0916739,30.2887893 C79.0916739,31.2222727 78.7773407,31.8965884 78.1470746,32.3109366 L78.1470746,32.3109366 Z M69.6640772,29.259318 L69.6640772,35.5289343 L67.9084503,35.5289343 L67.9084503,29.259318 L65.55695,29.259318 L65.55695,27.7707041 L72.0155776,27.7707041 L72.0155776,29.259318 L69.6640772,29.259318 Z M64.9378815,34.0627176 L64.9378815,35.5289343 L59.4134554,35.5289343 L59.4134554,27.7707041 L64.6795364,27.7707041 L64.6795364,29.2369208 L61.1690824,29.2369208 L61.1690824,30.7591305 L64.28602,30.7591305 L64.28602,32.1917515 L61.1690824,32.1917515 L61.1690824,34.0627176 L64.9378815,34.0627176 Z M55.8582109,35.5289343 L55.8582109,29.2473195 L52.9556277,29.2473195 L52.9556277,35.5289343 L51.2000008,35.5289343 L51.2000008,27.7707041 L57.6138379,27.7707041 L57.6138379,35.5289343 L55.8582109,35.5289343 Z M162.194015,20.3804279 C161.923673,20.2268471 161.537355,20.1508566 161.035061,20.1508566 L159.932096,20.1508566 L159.932096,22.155406 C160.060069,22.1706041 160.198439,22.1818027 160.348007,22.1882019 C160.498375,22.1962009 160.66394,22.1994005 160.843902,22.1994005 C161.36859,22.1994005 161.7925,22.1250098 162.114832,21.9762284 C162.437963,21.8266471 162.599529,21.5498817 162.599529,21.147532 C162.599529,20.7883769 162.464358,20.5332088 162.194015,20.3804279 L162.194015,20.3804279 Z M161.93487,17.2840149 C161.694921,17.1568308 161.341396,17.0936387 160.877495,17.0936387 C160.727127,17.0936387 160.565561,17.0952385 160.393598,17.099238 C160.221634,17.1040374 160.067267,17.1128363 159.932096,17.1272345 L159.932096,18.8174233 L160.787914,18.8174233 C161.326999,18.8174233 161.714117,18.7486319 161.946868,18.611849 C162.178818,18.4734663 162.294794,18.251094 162.294794,17.9455322 C162.294794,17.6319714 162.174819,17.411199 161.93487,17.2840149 L161.93487,17.2840149 Z M164.106409,20.0948636 C164.28637,20.4156235 164.376751,20.7779782 164.376751,21.1811278 C164.376751,21.9938262 164.078415,22.6073495 163.481741,23.0168983 C162.886668,23.427247 161.998057,23.6336212 160.821507,23.6336212 C160.393598,23.6336212 159.968088,23.6200229 159.544978,23.5936262 C159.120268,23.5672295 158.678762,23.5064371 158.222859,23.4096492 L158.222859,15.8841899 C158.581983,15.8169983 158.975499,15.7674045 159.403408,15.7338087 C159.830517,15.699413 160.228833,15.6826151 160.595955,15.6826151 C161.091049,15.6826151 161.547752,15.7186106 161.963664,15.7890018 C162.379576,15.8601929 162.737899,15.9817777 163.037836,16.1529563 C163.337772,16.3249348 163.572122,16.5505066 163.741686,16.8312715 C163.90965,17.1104366 163.994432,17.4559934 163.994432,17.8663421 C163.994432,18.4862647 163.694496,18.9750036 163.093824,19.3333588 C163.588919,19.5197355 163.926447,19.7741037 164.106409,20.0948636 L164.106409,20.0948636 Z M154.807585,18.611849 C154.714005,18.3014878 154.578833,18.0367208 154.402071,17.8159484 C154.226108,17.5959759 154.008554,17.4255972 153.750209,17.307212 C153.491064,17.187227 153.199926,17.1272345 152.877595,17.1272345 C152.547265,17.1272345 152.255327,17.1888268 152.000181,17.3128113 C151.745035,17.4359959 151.529881,17.6071745 151.353119,17.827147 C151.176356,18.0479194 151.041985,18.3126864 150.948405,18.6222477 C150.854825,18.9326089 150.807635,19.2741662 150.807635,19.6461197 C150.807635,20.027672 150.854825,20.371629 150.948405,20.6779907 C151.041985,20.9835525 151.176356,21.2475195 151.353119,21.4666921 C151.529881,21.6866646 151.745035,21.8562434 152.000181,21.9762284 C152.255327,22.0954135 152.547265,22.155406 152.877595,22.155406 C153.199926,22.155406 153.491064,22.0954135 153.750209,21.9762284 C154.008554,21.8562434 154.226108,21.6866646 154.402071,21.4666921 C154.578833,21.2475195 154.714005,20.9835525 154.807585,20.6779907 C154.901165,20.371629 154.948355,20.027672 154.948355,19.6461197 C154.948355,19.2653673 154.901165,18.9206104 154.807585,18.611849 L154.807585,18.611849 Z M156.461633,21.3987006 C156.262475,21.9034375 155.990533,22.3241849 155.645007,22.6641424 C155.30108,23.0048998 154.889967,23.2600679 154.414068,23.4320464 C153.938169,23.603225 153.425478,23.6888143 152.877595,23.6888143 C152.344908,23.6888143 151.842615,23.603225 151.370715,23.4320464 C150.898015,23.2600679 150.484503,23.0048998 150.131778,22.6641424 C149.779053,22.3241849 149.502312,21.9034375 149.300755,21.3987006 C149.096798,20.8947636 148.99602,20.3108366 148.99602,19.6461197 C148.99602,18.9822027 149.101597,18.3982757 149.310353,17.8943386 C149.521508,17.3904016 149.803848,16.9672545 150.159772,16.6240974 C150.517296,16.2801404 150.930009,16.0225726 151.398709,15.8505941 C151.867409,15.6794155 152.360105,15.5930263 152.877595,15.5930263 C153.410282,15.5930263 153.913375,15.6794155 154.386074,15.8505941 C154.857974,16.0225726 155.270686,16.2801404 155.623411,16.6240974 C155.975336,16.9672545 156.253677,17.3904016 156.456034,17.8943386 C156.657592,18.3982757 156.75917,18.9822027 156.75917,19.6461197 C156.75917,20.3108366 156.659991,20.8947636 156.461633,21.3987006 L156.461633,21.3987006 Z M145.778303,23.5320339 L145.778303,17.2504191 L143.86591,17.2504191 C143.843514,17.7503566 143.81552,18.2518939 143.781128,18.7566309 C143.748335,19.2605679 143.687548,19.747707 143.601966,20.2180482 C143.514784,20.6875895 143.390811,21.1291343 143.230045,21.539483 C143.068479,21.9498317 142.847726,22.3121864 142.566186,22.6257472 C142.285446,22.939308 141.93512,23.1888768 141.51361,23.3760534 C141.093699,23.5624301 140.580208,23.6664171 139.973137,23.6888143 L139.781178,22.1666046 C140.321863,22.1066121 140.737774,21.9698292 141.030512,21.7578557 C141.32325,21.5450823 141.544003,21.2187231 141.694371,20.7779782 C141.881531,20.2332463 142.015103,19.5293343 142.093486,18.6670421 C142.172669,17.8055497 142.211861,16.8400704 142.211861,15.7722039 L147.53473,15.7722039 L147.53473,23.5320339 L145.778303,23.5320339 Z M136.087563,19.499738 C135.976386,19.1933763 135.870009,18.9134113 135.76923,18.6582432 C135.669251,18.4046749 135.58047,18.1807028 135.505286,17.9863271 C135.428503,17.7927513 135.366916,17.6415702 135.320526,17.531184 C135.280534,17.6439699 135.223746,17.7975507 135.148562,17.9903266 C135.072578,18.1839024 134.986996,18.4094743 134.891017,18.6630426 C134.795037,18.9166109 134.68626,19.1973758 134.567885,19.5029376 C134.449511,19.8084994 134.327936,20.1284594 134.204763,20.4636175 L136.434689,20.4636175 C136.315514,20.1284594 136.199539,19.8060997 136.087563,19.499738 L136.087563,19.499738 Z M137.428878,23.5320339 C137.342496,23.2624676 137.248916,22.9857022 137.149737,22.7017377 C137.048958,22.4169733 136.949779,22.1338087 136.8506,21.8522439 L133.806447,21.8522439 C133.707268,22.1362084 133.608889,22.419373 133.50971,22.7041374 C133.410531,22.987302 133.317751,23.2640674 133.232969,23.5320339 L131.410156,23.5320339 C131.704494,22.6961384 131.982035,21.923435 132.245179,21.2155235 C132.509123,20.5052123 132.766668,19.8372958 133.018615,19.2101742 C133.270561,18.5830526 133.519308,17.9879269 133.763256,17.4239974 C134.008004,16.8608678 134.26235,16.3105366 134.526294,15.7722039 L136.189141,15.7722039 C136.445087,16.3105366 136.697833,16.8608678 136.94658,17.4239974 C137.195327,17.9879269 137.444874,18.5830526 137.69842,19.2101742 C137.950367,19.8372958 138.209512,20.5052123 138.472656,21.2155235 C138.7358,21.923435 139.01574,22.6961384 139.309278,23.5320339 L137.428878,23.5320339 Z M128.642745,23.5320339 L128.642745,20.2404454 L125.694571,20.2404454 L125.694571,23.5320339 L123.939744,23.5320339 L123.939744,15.7722039 L125.694571,15.7722039 L125.694571,18.739833 L128.642745,18.739833 L128.642745,15.7722039 L130.398371,15.7722039 L130.398371,23.5320339 L128.642745,23.5320339 Z M120.526069,18.611849 C120.43089,18.3014878 120.295718,18.0367208 120.119756,17.8159484 C119.943793,17.5959759 119.726239,17.4255972 119.467094,17.307212 C119.208749,17.187227 118.917611,17.1272345 118.596079,17.1272345 C118.26495,17.1272345 117.972212,17.1888268 117.717866,17.3128113 C117.46272,17.4359959 117.247566,17.6071745 117.070804,17.827147 C116.894841,18.0479194 116.760469,18.3126864 116.66609,18.6222477 C116.57171,18.9326089 116.525319,19.2741662 116.525319,19.6461197 C116.525319,20.027672 116.57171,20.371629 116.66609,20.6779907 C116.760469,20.9835525 116.894841,21.2475195 117.070804,21.4666921 C117.247566,21.6866646 117.46272,21.8562434 117.717866,21.9762284 C117.972212,22.0954135 118.26495,22.155406 118.596079,22.155406 C118.917611,22.155406 119.208749,22.0954135 119.467094,21.9762284 C119.726239,21.8562434 119.943793,21.6866646 120.119756,21.4666921 C120.295718,21.2475195 120.43089,20.9835525 120.526069,20.6779907 C120.61885,20.371629 120.66524,20.027672 120.66524,19.6461197 C120.66524,19.2653673 120.61885,18.9206104 120.526069,18.611849 L120.526069,18.611849 Z M122.178518,21.3987006 C121.98016,21.9034375 121.708218,22.3241849 121.363491,22.6641424 C121.017965,23.0048998 120.607652,23.2600679 120.130953,23.4320464 C119.655054,23.603225 119.142363,23.6888143 118.596079,23.6888143 C118.063393,23.6888143 117.5603,23.603225 117.0884,23.4320464 C116.6157,23.2600679 116.202188,23.0048998 115.849463,22.6641424 C115.497538,22.3241849 115.219197,21.9034375 115.01764,21.3987006 C114.815283,20.8947636 114.713704,20.3108366 114.713704,19.6461197 C114.713704,18.9822027 114.818482,18.3982757 115.028837,17.8943386 C115.238393,17.3904016 115.521533,16.9672545 115.879057,16.6240974 C116.234181,16.2801404 116.646894,16.0225726 117.115594,15.8505941 C117.584294,15.6794155 118.078589,15.5930263 118.596079,15.5930263 C119.127966,15.5930263 119.63026,15.6794155 120.102959,15.8505941 C120.575659,16.0225726 120.987571,16.2801404 121.341096,16.6240974 C121.693021,16.9672545 121.970562,17.3904016 122.173719,17.8943386 C122.375276,18.3982757 122.477655,18.9822027 122.477655,19.6461197 C122.477655,20.3108366 122.377676,20.8947636 122.178518,21.3987006 L122.178518,21.3987006 Z M111.518383,23.5320339 L111.518383,18.4486694 C110.857724,19.2173733 110.235456,20.0348711 109.65078,20.9011628 C109.065305,21.7674545 108.52142,22.6441449 108.019127,23.5320339 L106.54504,23.5320339 L106.54504,15.7722039 L108.28867,15.7722039 L108.28867,20.3516315 C108.559012,19.9492818 108.847751,19.5293343 109.155685,19.0925889 C109.46282,18.6558435 109.771555,18.2342961 110.083488,17.827147 C110.395422,17.4199979 110.700157,17.0384456 111.000094,16.6792905 C111.30083,16.3209353 111.574371,16.0185731 111.821519,15.7722039 L113.250815,15.7722039 L113.250815,23.5320339 L111.518383,23.5320339 Z M103.963189,17.2728163 C103.644856,17.1832275 103.282533,17.1384331 102.87702,17.1384331 C102.607477,17.1384331 102.342733,17.1832275 102.084388,17.2728163 C101.825243,17.3624051 101.596492,17.5063871 101.398134,17.7047623 C101.198976,17.9023376 101.03981,18.1575057 100.919836,18.4710666 C100.799861,18.7846274 100.739874,19.1653798 100.739874,19.6133238 C100.739874,19.971679 100.779065,20.3060372 100.857449,20.6155985 C100.936632,20.9251598 101.063805,21.1915265 101.240567,21.4154985 C101.41653,21.6402704 101.646881,21.8170483 101.93242,21.9482319 C102.21796,22.0786156 102.562686,22.1442074 102.9674,22.1442074 C103.222546,22.1442074 103.451298,22.1298092 103.652855,22.099413 C103.856811,22.0698167 104.035973,22.0330213 104.19354,21.9930263 C104.351906,21.9514315 104.490277,21.9050373 104.611051,21.8522439 C104.730226,21.8002504 104.839003,21.7522564 104.936582,21.707462 L105.420479,23.107287 C105.172532,23.2560684 104.824606,23.3904516 104.374301,23.5104366 C103.923197,23.6288218 103.401708,23.6888143 102.809834,23.6888143 C101.542103,23.6888143 100.576708,23.339258 99.9120497,22.6369458 C99.2489906,21.9354335 98.9170611,20.9387581 98.9170611,19.6461197 C98.9170611,19.0053998 99.0186395,18.4318715 99.2209965,17.9279344 C99.4225537,17.4239974 99.7008945,16.9984506 100.05282,16.651294 C100.405545,16.3049373 100.825456,16.0417702 101.313352,15.8625926 C101.802048,15.6826151 102.329936,15.5930263 102.900215,15.5930263 C103.229745,15.5930263 103.529681,15.6170233 103.800024,15.6666171 C104.070366,15.7146111 104.306316,15.771404 104.508673,15.8345961 C104.71183,15.8977882 104.880594,15.9617802 105.014965,16.0305716 C105.150137,16.0969633 105.247716,16.1497567 105.307703,16.1865521 L104.801411,17.5983756 C104.561462,17.4711915 104.282321,17.3624051 103.963189,17.2728163 L103.963189,17.2728163 Z M96.8638974,17.2728163 C96.5439654,17.1832275 96.1824422,17.1384331 95.7777282,17.1384331 C95.5073857,17.1384331 95.2434417,17.1832275 94.9842968,17.2728163 C94.7251519,17.3624051 94.4972003,17.5063871 94.2980426,17.7047623 C94.0996848,17.9023376 93.9397188,18.1575057 93.8205441,18.4710666 C93.7005696,18.7846274 93.6405823,19.1653798 93.6405823,19.6133238 C93.6405823,19.971679 93.679774,20.3060372 93.7581574,20.6155985 C93.8373405,20.9251598 93.9645135,21.1915265 94.1404761,21.4154985 C94.3172386,21.6402704 94.5475896,21.8170483 94.8331289,21.9482319 C95.1178684,22.0786156 95.4625952,22.1442074 95.868109,22.1442074 C96.122455,22.1442074 96.3520062,22.1298092 96.5535633,22.099413 C96.7559203,22.0698167 96.9366819,22.0330213 97.0942484,21.9930263 C97.251815,21.9514315 97.3901856,21.9050373 97.5101601,21.8522439 C97.6301346,21.8002504 97.7397113,21.7522564 97.8364907,21.707462 L98.3203879,23.107287 C98.0724406,23.2560684 97.7245145,23.3904516 97.2742102,23.5104366 C96.8239059,23.6288218 96.3024167,23.6888143 95.7105425,23.6888143 C94.442012,23.6888143 93.4766172,23.339258 92.8135581,22.6369458 C92.1488993,21.9354335 91.8177697,20.9387581 91.8177697,19.6461197 C91.8177697,19.0053998 91.9185483,18.4318715 92.1209053,17.9279344 C92.3240621,17.4239974 92.6008033,16.9984506 92.9535283,16.651294 C93.3054536,16.3049373 93.7261642,16.0417702 94.2140605,15.8625926 C94.701157,15.6826151 95.2298446,15.5930263 95.8009233,15.5930263 C96.1304533,15.5930263 96.4303895,15.6170233 96.6999322,15.6666171 C96.9702748,15.7146111 97.2070245,15.771404 97.4085817,15.8345961 C97.6117385,15.8977882 97.7805026,15.9617802 97.9164737,16.0305716 C98.0508452,16.0969633 98.1484244,16.1497567 98.2084117,16.1865521 L97.7013195,17.5983756 C97.4613704,17.4711915 97.1822298,17.3624051 96.8638974,17.2728163 L96.8638974,17.2728163 Z M90.8611729,22.0658172 L90.8611729,23.5320339 L85.3367469,23.5320339 L85.3367469,15.7722039 L90.602028,15.7722039 L90.602028,17.2400204 L87.0923738,17.2400204 L87.0923738,18.7622302 L90.2077118,18.7622302 L90.2077118,20.195651 L87.0923738,20.195651 L87.0923738,22.0658172 L90.8611729,22.0658172 Z M82.0686413,18.7462322 C81.9974564,18.5406579 81.8886796,18.3574808 81.7415108,18.1967008 C81.5951419,18.0367208 81.4103812,17.9039374 81.1848291,17.7991505 C80.9600769,17.6943636 80.6969328,17.6279719 80.3969965,17.5983756 L80.3969965,21.1579307 C80.6969328,21.1363334 80.9576774,21.0763409 81.1800301,20.9803529 C81.4007832,20.8819652 81.5847441,20.7547811 81.7303132,20.5988006 C81.8766821,20.4420202 81.9878585,20.2604429 82.0622427,20.0556685 C82.1382265,19.8500942 82.1750187,19.6325214 82.1750187,19.4005504 C82.1750187,19.1693793 82.1390264,18.9502067 82.0686413,18.7462322 L82.0686413,18.7462322 Z M78.6869599,17.5983756 C78.3870236,17.6279719 78.1246794,17.6943636 77.8991273,17.7991505 C77.6743751,17.9039374 77.4896143,18.0367208 77.3424456,18.1967008 C77.1960767,18.3574808 77.0872998,18.5406579 77.016115,18.7462322 C76.9449301,18.9502067 76.9089377,19.1693793 76.9089377,19.4005504 C76.9089377,19.6325214 76.9465297,19.8500942 77.0225136,20.0556685 C77.0968978,20.2604429 77.2072743,20.4420202 77.3536432,20.5988006 C77.5000121,20.7547811 77.683973,20.8819652 77.905526,20.9803529 C78.1254792,21.0763409 78.3870236,21.1363334 78.6869599,21.1579307 L78.6869599,17.5983756 Z M83.7050936,20.5708041 C83.561924,20.9411578 83.3475696,21.2731163 83.0580311,21.5674795 C82.7692924,21.8618427 82.4037701,22.1026126 81.9614641,22.2897892 C81.5183583,22.4761659 80.9968691,22.5841524 80.3969965,22.6137487 L80.3969965,23.5320339 L78.6869599,23.5320339 L78.6869599,22.6137487 C78.0870874,22.5841524 77.5655982,22.4761659 77.1232922,22.2897892 C76.6809862,22.1026126 76.314664,21.8618427 76.0259254,21.5674795 C75.7379866,21.2731163 75.5220324,20.9411578 75.3788629,20.5708041 C75.237293,20.2012503 75.1653082,19.8180982 75.1653082,19.4229476 C75.1653082,19.0349961 75.237293,18.6542437 75.3788629,18.2806903 C75.5220324,17.9079369 75.7379866,17.5695792 76.0259254,17.2680169 C76.314664,16.9648548 76.6809862,16.7136862 77.1232922,16.5121114 C77.5655982,16.3105366 78.0870874,16.1865521 78.6869599,16.1417577 L78.6869599,15.2690668 L80.3969965,15.2690668 L80.3969965,16.1417577 C80.9968691,16.1865521 81.5183583,16.3105366 81.9614641,16.5121114 C82.4037701,16.7136862 82.7692924,16.9648548 83.0580311,17.2680169 C83.3475696,17.5695792 83.561924,17.9079369 83.7050936,18.2806903 C83.8474633,18.6542437 83.9186482,19.0349961 83.9186482,19.4229476 C83.9186482,19.8180982 83.8474633,20.2012503 83.7050936,20.5708041 L83.7050936,20.5708041 Z M72.1331526,18.611849 C72.0403723,18.3014878 71.9044012,18.0367208 71.7284386,17.8159484 C71.5516761,17.5959759 71.3349222,17.4255972 71.0757773,17.307212 C70.8174322,17.187227 70.5254942,17.1272345 70.2039625,17.1272345 C69.8744325,17.1272345 69.5808949,17.1888268 69.3257491,17.3128113 C69.0714032,17.4359959 68.8554491,17.6071745 68.6794865,17.827147 C68.502724,18.0479194 68.3683526,18.3126864 68.2747725,18.6222477 C68.1803925,18.9326089 68.1340024,19.2741662 68.1340024,19.6461197 C68.1340024,20.027672 68.1803925,20.371629 68.2747725,20.6779907 C68.3683526,20.9835525 68.502724,21.2475195 68.6794865,21.4666921 C68.8554491,21.6866646 69.0714032,21.8562434 69.3257491,21.9762284 C69.5808949,22.0954135 69.8744325,22.155406 70.2039625,22.155406 C70.5254942,22.155406 70.8174322,22.0954135 71.0757773,21.9762284 C71.3349222,21.8562434 71.5516761,21.6866646 71.7284386,21.4666921 C71.9044012,21.2475195 72.0403723,20.9835525 72.1331526,20.6779907 C72.2267327,20.371629 72.2747225,20.027672 72.2747225,19.6461197 C72.2747225,19.2653673 72.2267327,18.9206104 72.1331526,18.611849 L72.1331526,18.611849 Z M73.7872011,21.3987006 C73.5888432,21.9034375 73.316901,22.3241849 72.9713744,22.6641424 C72.6266477,23.0048998 72.2155351,23.2600679 71.7396362,23.4320464 C71.2637373,23.603225 70.7510463,23.6888143 70.2039625,23.6888143 C69.6712757,23.6888143 69.1689824,23.603225 68.6962829,23.4320464 C68.2235833,23.2600679 67.810871,23.0048998 67.458146,22.6641424 C67.1054209,22.3241849 66.8278799,21.9034375 66.6255229,21.3987006 C66.4231659,20.8947636 66.3223873,20.3108366 66.3223873,19.6461197 C66.3223873,18.9822027 66.4263652,18.3982757 66.6367205,17.8943386 C66.846276,17.3904016 67.1302157,16.9672545 67.48614,16.6240974 C67.8428642,16.2801404 68.2547767,16.0225726 68.7242769,15.8505941 C69.1929773,15.6794155 69.6864725,15.5930263 70.2039625,15.5930263 C70.7366493,15.5930263 71.2397424,15.6794155 71.7116421,15.8505941 C72.1843417,16.0225726 72.5962542,16.2801404 72.9489792,16.6240974 C73.3017043,16.9672545 73.5800451,17.3904016 73.7816023,17.8943386 C73.9847591,18.3982757 74.0855377,18.9822027 74.0855377,19.6461197 C74.0855377,20.3108366 73.9863588,20.8947636 73.7872011,21.3987006 L73.7872011,21.3987006 Z M63.4358007,17.7431575 C63.3574174,17.6015752 63.2446413,17.4879894 63.0982724,17.4016002 C62.9527034,17.3160109 62.7743413,17.2568183 62.563986,17.2224226 C62.3536307,17.1888268 62.12168,17.1728288 61.8665342,17.1728288 C61.7393612,17.1728288 61.6137879,17.1760284 61.4898142,17.1832275 C61.3658406,17.1904266 61.2586633,17.1984256 61.1690824,17.2056247 L61.1690824,19.4453448 L61.7201653,19.4453448 C62.3272363,19.4453448 62.7855389,19.3629551 63.0934735,19.1989756 C63.4006082,19.0349961 63.5541756,18.7286344 63.5541756,18.2806903 C63.5541756,18.0639174 63.5149839,17.8847398 63.4358007,17.7431575 L63.4358007,17.7431575 Z M64.4203915,20.3132363 C63.7901254,20.7275845 62.8903166,20.9347586 61.7201653,20.9347586 L61.1690824,20.9347586 L61.1690824,23.5320339 L59.4134554,23.5320339 L59.4134554,15.8841899 C59.796574,15.8105991 60.2020879,15.7578057 60.6291971,15.7274095 C61.0563063,15.6986131 61.4314266,15.6826151 61.754558,15.6826151 C62.9159112,15.6826151 63.8093213,15.8857897 64.4315891,16.2929388 C65.0538569,16.7000879 65.3657906,17.3664046 65.3657906,18.2926888 C65.3657906,19.2253723 65.0506576,19.8988881 64.4203915,20.3132363 L64.4203915,20.3132363 Z M55.8582109,23.5320339 L55.8582109,17.2504191 L52.9556277,17.2504191 L52.9556277,23.5320339 L51.2000008,23.5320339 L51.2000008,15.7722039 L57.6138379,15.7722039 L57.6138379,23.5320339 L55.8582109,23.5320339 Z M89.3167011,7.50283758 C89.2047249,7.19647588 89.0983475,6.91651087 88.9983688,6.66134277 C88.8967904,6.40777446 88.8088091,6.18300256 88.7328252,5.98942676 C88.6568414,5.79505105 88.5960543,5.64386995 88.5488643,5.53348375 C88.5088728,5.64706955 88.4528847,5.79985045 88.3769008,5.99342626 C88.3017168,6.18780196 88.216135,6.41257386 88.1201554,6.66534227 C88.0225761,6.92051037 87.9153989,7.19967548 87.7962242,7.50523728 C87.6778494,7.81159899 87.5554754,8.13235889 87.4339012,8.467517 L89.6630275,8.467517 C89.5438529,8.13075909 89.4278775,7.80919929 89.3167011,7.50283758 L89.3167011,7.50283758 Z M90.6572163,11.5351335 C90.5708346,11.2655672 90.4780544,10.9880019 90.3772758,10.7048373 C90.277297,10.4200729 90.1781181,10.1385081 90.079739,9.85614342 L87.0339862,9.85614342 C86.9364069,10.139308 86.8364282,10.4216727 86.7380491,10.7064371 C86.6388702,10.9920014 86.5476895,11.2679669 86.4613079,11.5351335 L84.6384952,11.5351335 C84.9320329,10.699238 85.2111735,9.92653462 85.4735178,9.21702331 C85.7374617,8.5091118 85.995007,7.84039539 86.2469534,7.21327378 C86.4996997,6.58615217 86.7468472,5.99102656 86.9915952,5.42709705 C87.2363432,4.86316754 87.4906892,4.31363623 87.7538332,3.77690332 L89.4182796,3.77690332 C89.6734253,4.31363623 89.9261716,4.86316754 90.1749188,5.42709705 C90.4236659,5.99102656 90.6740127,6.58615217 90.926759,7.21327378 C91.1795053,7.84039539 91.4378504,8.5091118 91.7009945,9.21702331 C91.9649384,9.92653462 92.2440791,10.699238 92.5376167,11.5351335 L90.6572163,11.5351335 Z M82.6277225,5.65346875 C82.3885733,5.94543226 82.1430255,6.23499606 81.8918789,6.52535977 C81.6407322,6.81732327 81.3663905,7.12208518 81.0664543,7.44364498 C81.6735253,8.00357499 82.2270077,8.6338962 82.7293009,9.33220891 C83.2307944,10.0313215 83.6994948,10.7656297 84.1330027,11.5351335 L82.1774182,11.5351335 C81.9446677,11.1831775 81.7271139,10.8560184 81.5239571,10.5560559 C81.3216001,10.2560934 81.1192431,9.96812942 80.9160862,9.68976422 C80.7137292,9.41299881 80.5033739,9.14103281 80.2858202,8.8746661 C80.0682664,8.6082994 79.8275175,8.33233389 79.5643735,8.04836939 L79.5643735,11.5351335 L77.8551367,11.5351335 L77.8551367,8.06756699 C77.5847941,8.3811278 77.340846,8.6722914 77.1232922,8.9402579 C76.9057384,9.20822441 76.6977826,9.47699081 76.4986249,9.74495732 C76.3010669,10.0145236 76.0995097,10.291289 75.8971527,10.5800529 C75.6947957,10.8664171 75.477242,11.1855772 75.2444914,11.5351335 L73.2977051,11.5351335 C73.5152589,11.1543811 73.7488092,10.7736287 73.9967566,10.3912765 C74.243904,10.011324 74.49825,9.64257011 74.7573949,9.28661461 C75.0165399,8.9322589 75.2836831,8.5995005 75.5580248,8.28913929 C75.8323665,7.97957799 76.107508,7.70121278 76.3866487,7.45404368 C76.0707159,7.13328378 75.7779781,6.81972297 75.5068357,6.51496107 C75.2364931,6.20939926 74.9797477,5.90783696 74.7349997,5.60947425 C74.4902517,5.31191145 74.2527022,5.01114904 74.0191518,4.70958674 C73.7872011,4.40802443 73.5496516,4.09526353 73.3089027,3.77690332 L75.4268527,3.77690332 C75.6516049,4.08886433 75.8635599,4.37682833 76.0619177,4.63759574 C76.2602756,4.89836314 76.4554341,5.15193144 76.6465935,5.39830065 C76.8377529,5.64466985 77.0305119,5.88703956 77.2248706,6.12540976 C77.4200291,6.36457986 77.6295846,6.61814817 77.8551367,6.88611467 L77.8551367,3.77690332 L79.5643735,3.77690332 L79.5643735,6.89091407 C79.7899255,6.61494857 80.0050798,6.35098156 80.211436,6.10141276 C80.4185919,5.85024416 80.6185495,5.60227515 80.813708,5.35590595 C81.0080667,5.10953674 81.204025,4.85596844 81.3991836,4.59920054 C81.5935423,4.34243263 81.7927,4.06726703 81.995057,3.77690332 L84.0994098,3.77690332 C83.8290672,4.12565973 83.5763209,4.45361873 83.3411709,4.75918054 C83.1052211,5.06474234 82.8676715,5.36390495 82.6277225,5.65346875 L82.6277225,5.65346875 Z M71.0413846,5.74705705 C70.963801,5.60467485 70.8502252,5.49028915 70.7046561,5.40549975 C70.5582872,5.31911055 70.3799251,5.25911805 70.1703696,5.22552225 C69.9592145,5.19192645 69.7272638,5.17512854 69.4729179,5.17512854 C69.344945,5.17512854 69.2193717,5.17992795 69.0953981,5.18552725 C68.9722242,5.19432615 68.865047,5.20152525 68.7746662,5.20952425 L68.7746662,7.44844438 L69.3257491,7.44844438 C69.93362,7.44844438 70.3919226,7.36605468 70.6990573,7.20207518 C71.006192,7.03729577 71.1597594,6.73173397 71.1597594,6.28378996 C71.1597594,6.06781696 71.1205677,5.88783946 71.0413846,5.74705705 L71.0413846,5.74705705 Z M72.0267752,8.31633589 C71.3957093,8.7306841 70.4959005,8.9378582 69.3257491,8.9378582 L68.7746662,8.9378582 L68.7746662,11.5351335 L67.0198391,11.5351335 L67.0198391,3.88728952 C67.4029577,3.81369872 67.8068719,3.76090532 68.234781,3.73130902 C68.6618902,3.70091282 69.0370105,3.68571472 69.359342,3.68571472 C70.5222949,3.68571472 71.4149052,3.88888932 72.0379728,4.29683833 C72.6602406,4.70318754 72.9713744,5.36950425 72.9713744,6.29498856 C72.9713744,7.22767198 72.6562414,7.90198769 72.0267752,8.31633589 L72.0267752,8.31633589 Z M63.4869898,11.5351335 L63.4869898,6.45176896 C62.8271301,7.22047288 62.2032626,8.03877059 61.6185869,8.9042624 C61.0331113,9.76975422 60.4900267,10.6480444 59.9877334,11.5351335 L58.5128468,11.5351335 L58.5128468,3.77690332 L60.2572761,3.77690332 L60.2572761,8.35553099 C60.5276187,7.95238139 60.8163573,7.53163398 61.1242919,7.09568847 C61.4314266,6.65894307 61.7409609,6.23739576 62.0520947,5.83024666 C62.3632286,5.42309755 62.6695635,5.04074534 62.9694998,4.68319004 C63.2686362,4.32483483 63.5429779,4.02167273 63.7901254,3.77690332 L65.2194217,3.77690332 L65.2194217,11.5351335 L63.4869898,11.5351335 Z M55.194352,8.52351 C55.104771,8.3827276 54.9767982,8.26994169 54.8120332,8.18675209 C54.6472682,8.10516229 54.4441114,8.04996919 54.2041624,8.01877309 C53.9642134,7.98917679 53.6946707,7.97477859 53.3939346,7.97477859 L52.8764445,7.97477859 L52.8764445,10.1017127 C52.9596269,10.1105116 53.0588058,10.115311 53.175581,10.1185106 C53.2915563,10.12331 53.4243281,10.1249098 53.5746962,10.1249098 C53.8066469,10.1249098 54.0281998,10.1105116 54.2385551,10.0801154 C54.4481106,10.0497192 54.6336711,9.99612592 54.7952368,9.91693582 C54.9568025,9.83934552 55.0855751,9.73295882 55.1831544,9.59857561 C55.2807336,9.46419241 55.3295233,9.28821441 55.3295233,9.07224141 C55.3295233,8.8482694 55.2839329,8.6650923 55.194352,8.52351 L55.194352,8.52351 Z M56.1677451,10.9808028 C55.5414782,11.40315 54.6472682,11.6143236 53.4843154,11.6143236 C53.1691823,11.6143236 52.8108585,11.595126 52.4093438,11.5575307 C52.0078291,11.5199354 51.6055146,11.4527438 51.2000008,11.355156 L51.2000008,3.77690332 L56.3765008,3.77690332 L56.3765008,5.25351875 L52.8764445,5.25351875 L52.8764445,6.52935927 L53.4499227,6.52935927 C54.0281998,6.52935927 54.5440902,6.57575347 54.9975938,6.66454237 C55.4510974,6.75413117 55.8334162,6.89971297 56.1445501,7.10128778 C56.4564838,7.30286258 56.6948331,7.56442988 56.8595981,7.88518979 C57.0243631,8.20594969 57.1075454,8.5979007 57.1075454,9.06104281 C57.1075454,9.91853562 56.7940121,10.5600554 56.1677451,10.9808028 L56.1677451,10.9808028 Z" id="Fill-5" fill="#262626"></path>
            </g>
        </g>
    </g>
</svg>
