<svg width="95" height="95" viewBox="0 0 95 95" fill="none" xmlns="http://www.w3.org/2000/svg">
<path d="M47.5 95C73.7335 95 95 73.7335 95 47.5C95 21.2665 73.7335 0 47.5 0C21.2665 0 0 21.2665 0 47.5C0 73.7335 21.2665 95 47.5 95Z" fill="#EBEBEB"/>
<path d="M49.5 72.0999V44.0999H45.5V72.0999L42.9 75.8999L44.9 84.1999H50.1L52.1 75.8999L49.5 72.0999Z" fill="white"/>
<path d="M49.5 72.0999H49.9V44.0999C49.9 43.9999 49.9 43.8999 49.8 43.7999C49.7 43.6999 49.6 43.7 49.5 43.7H45.5C45.4 43.7 45.3 43.6999 45.2 43.7999C45.1 43.8999 45.1 43.9999 45.1 44.0999V72L42.6 75.6999C42.5 75.7999 42.5 75.9 42.5 76L44.5 84.4C44.5 84.6 44.7 84.6999 44.9 84.6999H50.1C50.3 84.6999 50.4 84.6 50.5 84.4L52.5 76C52.5 75.9 52.5 75.7999 52.4 75.6999L49.8 71.9L49.5 72.0999H49.9H49.5L49.2 72.3L51.7 76L49.8 83.9H45.2L43.3 76L45.8 72.3L45.9 72.0999V44.5H49.1V72.0999L49.2 72.3L49.5 72.0999Z" fill="#A3A3A3"/>
<path d="M54.5 48.7999C55.2 48.7999 55.8 48.2 55.8 47.5V19C55.8 14.4 52.1 10.7 47.6 10.7C43 10.7 39.4 14.4 39.4 19V47.5C39.4 48.2 40 48.7999 40.7 48.7999H43.1V52.0999H40.4C39.9 52.0999 39.4 52.4999 39.4 53.0999V55.2C39.4 55.7 39.8 56.2 40.4 56.2H55C55.5 56.2 56 55.8 56 55.2V53.0999C56 52.5999 55.6 52.0999 55 52.0999H52.3V48.7999H54.5Z" fill="white"/>
<path d="M54.5 48.7999V49.1999C55.4 49.1999 56.1 48.4999 56.1 47.5999V18.9999C56.1 14.1999 52.2 10.3999 47.5 10.3999C42.7 10.3999 38.9 14.2999 38.9 18.9999V47.4999C38.9 48.3999 39.6 49.0999 40.5 49.0999H42.5V51.6999H40.2C39.5 51.6999 38.9 52.2999 38.9 52.9999V55.0999C38.9 55.7999 39.5 56.3999 40.2 56.3999H54.8C55.5 56.3999 56.1 55.7999 56.1 55.0999V52.9999C56.1 52.2999 55.5 51.6999 54.8 51.6999H52.5V49.0999H54.5V48.7999V48.3999H52.1C52 48.3999 51.9 48.3999 51.8 48.4999C51.7 48.5999 51.7 48.6999 51.7 48.7999V52.0999C51.7 52.1999 51.7 52.2999 51.8 52.3999C51.9 52.4999 52 52.4999 52.1 52.4999H54.8C55.1 52.4999 55.4 52.7999 55.4 53.0999V55.1999C55.4 55.4999 55.1 55.7999 54.8 55.7999H40.2C39.9 55.7999 39.6 55.4999 39.6 55.1999V53.0999C39.6 52.7999 39.9 52.4999 40.2 52.4999H42.9C43 52.4999 43.1 52.4999 43.2 52.3999C43.3 52.2999 43.3 52.1999 43.3 52.0999V48.7999C43.3 48.6999 43.3 48.5999 43.2 48.4999C43.1 48.3999 43 48.3999 42.9 48.3999H40.5C40 48.3999 39.6 47.9999 39.6 47.4999V18.9999C39.6 16.7999 40.5 14.8999 41.9 13.3999C43.3 11.9999 45.3 11.0999 47.5 11.0999C49.7 11.0999 51.6 11.9999 53.1 13.3999C54.5 14.7999 55.4 16.7999 55.4 18.9999V47.4999C55.4 47.9999 55 48.3999 54.5 48.3999V48.7999V48.7999Z" fill="#A3A3A3"/>
<path d="M41.8 25.9001C42.6 27.2001 44.5001 27.2001 45.4001 25.9001Z" fill="white"/>
<path d="M41.5 26.1001C42 26.9001 42.8 27.3001 43.6 27.3001C44.4 27.3001 45.2 26.9001 45.7 26.1001C45.8 25.9001 45.7 25.7001 45.6 25.6001C45.4 25.5001 45.2 25.6001 45.1 25.7001C44.8 26.3001 44.2 26.5001 43.6 26.5001C43 26.5001 42.5 26.2001 42.1 25.7001C42 25.5001 41.8 25.5001 41.6 25.6001C41.4 25.7001 41.4 25.9001 41.5 26.1001Z" fill="#A3A3A3"/>
<path d="M49.6 25.9001C50.4 27.2001 52.3 27.2001 53.2 25.9001Z" fill="white"/>
<path d="M49.3 26.1001C49.8 26.9001 50.6 27.3001 51.4 27.3001C52.2 27.3001 53 26.9001 53.5 26.1001C53.6 25.9001 53.5 25.7001 53.4 25.6001C53.2 25.5001 53 25.6001 52.9 25.7001C52.6 26.3001 52 26.5001 51.4 26.5001C50.8 26.5001 50.3 26.2001 49.9 25.7001C49.8 25.5001 49.6 25.5001 49.4 25.6001C49.3 25.7001 49.2 25.9001 49.3 26.1001Z" fill="#A3A3A3"/>
<path d="M48.7 39.2999H46.2999C43.7999 39.2999 41.7 37.2 41.7 34.7V33.9C41.7 33.3 42.2 32.7 42.9 32.7H52.0999C52.6999 32.7 53.2999 33.2 53.2999 33.9V34.7C53.2999 37.2 51.2 39.2999 48.7 39.2999Z" fill="#CECECE"/>
</svg>
