<svg width="95" height="95" viewBox="0 0 95 95" fill="none" xmlns="http://www.w3.org/2000/svg">
<path d="M47.5 95C73.7335 95 95 73.7335 95 47.5C95 21.2665 73.7335 0 47.5 0C21.2665 0 0 21.2665 0 47.5C0 73.7335 21.2665 95 47.5 95Z" fill="#EBEBEB"/>
<path d="M36.4 23.5998H37.5C37.7 23.5998 37.9 23.3998 37.9 23.1998C37.9 22.9998 37.7 22.7998 37.5 22.7998H36.4C36.2 22.7998 36 22.9998 36 23.1998C36 23.3998 36.2 23.5998 36.4 23.5998Z" fill="#A3A3A3"/>
<path d="M48 25.8999H49.1C49.3 25.8999 49.5 25.6999 49.5 25.4999C49.5 25.2999 49.3 25.0999 49.1 25.0999H48C47.8 25.0999 47.6 25.2999 47.6 25.4999C47.6 25.6999 47.8 25.8999 48 25.8999Z" fill="#A3A3A3"/>
<path d="M42.1999 22.1999H43.2999C43.4999 22.1999 43.6999 21.9999 43.6999 21.7999C43.6999 21.5999 43.4999 21.3999 43.2999 21.3999H42.1999C41.9999 21.3999 41.7999 21.5999 41.7999 21.7999C41.7999 22.0999 41.9999 22.1999 42.1999 22.1999Z" fill="#A3A3A3"/>
<path d="M36.0999 29.5998H37.2C37.4 29.5998 37.5999 29.3998 37.5999 29.1998C37.5999 28.9998 37.4 28.7998 37.2 28.7998H36.0999C35.8999 28.7998 35.7 28.9998 35.7 29.1998C35.7 29.3998 35.8999 29.5998 36.0999 29.5998Z" fill="#A3A3A3"/>
<path d="M59.0999 29.5998H60.2C60.4 29.5998 60.5999 29.3998 60.5999 29.1998C60.5999 28.9998 60.4 28.7998 60.2 28.7998H59.0999C58.8999 28.7998 58.7 28.9998 58.7 29.1998C58.7 29.3998 58.8999 29.5998 59.0999 29.5998Z" fill="#A3A3A3"/>
<path d="M52.5999 29H53.7C53.9 29 54.0999 28.8 54.0999 28.6C54.0999 28.4 53.9 28.2 53.7 28.2H52.5999C52.3999 28.2 52.2 28.4 52.2 28.6C52.2 28.9 52.3999 29 52.5999 29Z" fill="#A3A3A3"/>
<path d="M28.5 30.0998H29.6C29.8 30.0998 30 29.8998 30 29.6998C30 29.4998 29.8 29.2998 29.6 29.2998H28.5C28.3 29.2998 28.1 29.4998 28.1 29.6998C28.1 29.8998 28.3 30.0998 28.5 30.0998Z" fill="#A3A3A3"/>
<path d="M41.5999 26.5998H42.7C42.9 26.5998 43.0999 26.3998 43.0999 26.1998C43.0999 25.9998 42.9 25.7998 42.7 25.7998H41.5999C41.3999 25.7998 41.2 25.9998 41.2 26.1998C41.2 26.4998 41.3999 26.5998 41.5999 26.5998Z" fill="#A3A3A3"/>
<path d="M56.0999 25.8999H57.2C57.4 25.8999 57.5999 25.6999 57.5999 25.4999C57.5999 25.2999 57.4 25.0999 57.2 25.0999H56.0999C55.8999 25.0999 55.7 25.2999 55.7 25.4999C55.7 25.6999 55.7999 25.8999 56.0999 25.8999Z" fill="#A3A3A3"/>
<path d="M44.6999 30.0998H45.7999C45.9999 30.0998 46.1999 29.8998 46.1999 29.6998C46.1999 29.4998 45.9999 29.2998 45.7999 29.2998H44.6999C44.4999 29.2998 44.2999 29.4998 44.2999 29.6998C44.2999 29.8998 44.3999 30.0998 44.6999 30.0998Z" fill="#A3A3A3"/>
<path d="M50.6999 23H51.7999C51.9999 23 52.1999 22.8 52.1999 22.6C52.1999 22.4 51.9999 22.2 51.7999 22.2H50.6999C50.4999 22.2 50.2999 22.4 50.2999 22.6C50.2999 22.9 50.4999 23 50.6999 23Z" fill="#A3A3A3"/>
<path d="M31.4 25.8999H32.5C32.7 25.8999 32.9 25.6999 32.9 25.4999C32.9 25.2999 32.7 25.0999 32.5 25.0999H31.4C31.2 25.0999 31 25.2999 31 25.4999C31 25.6999 31.2 25.8999 31.4 25.8999Z" fill="#A3A3A3"/>
<path d="M58.9 51.2999C60.9987 51.2999 62.7 49.5986 62.7 47.5C62.7 45.4013 60.9987 43.7 58.9 43.7C56.8013 43.7 55.1 45.4013 55.1 47.5C55.1 49.5986 56.8013 51.2999 58.9 51.2999Z" fill="#CECECE"/>
<path d="M32.8 51.2999C34.8987 51.2999 36.6 49.5986 36.6 47.5C36.6 45.4013 34.8987 43.7 32.8 43.7C30.7013 43.7 29 45.4013 29 47.5C29 49.5986 30.7013 51.2999 32.8 51.2999Z" fill="#CECECE"/>
<path d="M22.5 32.1C26 23.6 35 19 44.2 19C53.1 19 62 23.3 65.9 32.3C66 32.5 66.2 32.6 66.4 32.5C66.6 32.4 66.7 32.2 66.6 32C62.6 22.7 53.3 18.2 44.2 18.3C34.8 18.3 25.4 23 21.8 31.8C21.7 32 21.8 32.2 22 32.3C22.2 32.4 22.5 32.3 22.5 32.1Z" fill="#A3A3A3"/>
<path d="M64.2 57L59.8 73.8L60.2 73.9L59.8 73.8C59.3 75.2 58 75.9 56.7 75.9C55.9 75.9 55.1 75.6 54.5 75L54.2 75.3L54.5 75.0999L45.5 57.7C45.4 57.5 45.2 57.4 45 57.5C44.8 57.6 44.7 57.8 44.8 58L53.8 75.4L53.9 75.5C54.7 76.2 55.7 76.5999 56.6 76.5999C58.2 76.5999 59.8 75.6 60.4 74L64.8 57.2C64.9 57 64.7 56.8 64.5 56.7C64.4 56.7 64.2 56.8 64.2 57Z" fill="#A3A3A3"/>
<path d="M78.1 23.2C78 23.2 76.9 23.2 76.1 23.2C75.9 23.2 75.7 23.2 75.6 23.2H75.4H75.3C73.9 23.3 72.6 24.3 72.1 25.7L70.3 32.9C70.2 33.1 70.4 33.3 70.6 33.4C70.8 33.5 71 33.2999 71.1 33.0999L72.9 25.9L72.5 25.7999L72.9 25.9C73.3 24.8 74.3 24 75.5 23.9C75.6 23.9 75.9 23.9 76.2 23.9C77 23.9 78.1 23.9 78.2 23.9C78.4 23.9 78.6 23.7 78.6 23.5C78.5 23.4 78.3 23.2 78.1 23.2Z" fill="#A3A3A3"/>
<path d="M29.6 59.2L17 34.7999C16.5 33.4999 17.4 32.2 18.8 32.2H70.8L64.3 58H63.7H38.2" fill="white"/>
<path d="M71.1 31.9999C71 31.8999 70.9 31.8999 70.8 31.8999H18.8C17.5 31.8999 16.5 32.9999 16.5 34.1999C16.5 34.4999 16.6 34.7999 16.7 34.9999L29.3 59.3999C29.4 59.5999 29.6 59.6999 29.8 59.5999C30 59.4999 30.1 59.2999 30 59.0999L17.3 34.6999C17.2 34.4999 17.2 34.2999 17.2 34.0999C17.2 33.6999 17.4 33.2999 17.6 32.9999C17.9 32.6999 18.3 32.4999 18.7 32.4999H70.2L63.9 57.4999H63.6H38.2C38 57.4999 37.8 57.6999 37.8 57.8999C37.8 58.0999 38 58.2999 38.2 58.2999H63.7H64.3C64.5 58.2999 64.6 58.1999 64.7 57.9999L71.2 32.2999C71.2 32.1999 71.2 32.0999 71.1 31.9999Z" fill="#A3A3A3"/>
<path d="M31.9 37.8999C33.5 40.5999 37.5 40.5999 39.1 37.8999Z" fill="white"/>
<path d="M31.6 38.0999C32.5 39.5999 34 40.2999 35.5 40.2999C37 40.2999 38.5 39.5999 39.4 38.0999C39.5 37.8999 39.4 37.6999 39.3 37.5999C39.1 37.4999 38.9 37.5999 38.8 37.6999C38.1 38.8999 36.8 39.5999 35.5 39.5999C34.2 39.5999 33 38.9999 32.2 37.6999C32.1 37.4999 31.9 37.4999 31.7 37.5999C31.6 37.6999 31.5 37.8999 31.6 38.0999Z" fill="#A3A3A3"/>
<path d="M52.4 37.8999C54 40.5999 58 40.5999 59.6 37.8999Z" fill="white"/>
<path d="M52.1 38.0999C53 39.5999 54.5 40.2999 56 40.2999C57.5 40.2999 59 39.5999 59.9 38.0999C60 37.8999 59.9 37.6999 59.8 37.5999C59.6 37.4999 59.4 37.5999 59.3 37.6999C58.6 38.8999 57.3 39.5999 56 39.5999C54.7 39.5999 53.5 38.9999 52.7 37.6999C52.6 37.4999 52.4 37.4999 52.2 37.5999C52.1 37.6999 52 37.8999 52.1 38.0999Z" fill="#A3A3A3"/>
<path d="M45.7999 51.2C47.7882 51.2 49.4 50.0359 49.4 48.6C49.4 47.1641 47.7882 46 45.7999 46C43.8117 46 42.2 47.1641 42.2 48.6C42.2 50.0359 43.8117 51.2 45.7999 51.2Z" fill="white"/>
<path d="M49.4001 48.5999H49C49 49.1999 48.7 49.6999 48.1 50.0999C47.5 50.4999 46.7 50.7999 45.8 50.7999C44.9 50.7999 44 50.4999 43.5 50.0999C42.9 49.6999 42.6 49.0999 42.6 48.5999C42.6 47.9999 42.9 47.4999 43.5 47.0999C44.1 46.6999 44.9 46.4 45.8 46.4C46.7 46.4 47.6 46.6999 48.1 47.0999C48.7 47.4999 49 48.0999 49 48.5999H49.4001H49.8C49.8 47.6999 49.3 47 48.6 46.5C47.9 46 46.9 45.7 45.8 45.7C44.7 45.7 43.8 46 43 46.5C42.3 47 41.8 47.7999 41.8 48.5999C41.8 49.4999 42.3 50.2 43 50.7C43.7 51.2 44.7 51.5 45.8 51.5C46.9 51.5 47.8 51.2 48.6 50.7C49.3 50.2 49.8 49.3999 49.8 48.5999H49.4001Z" fill="#A3A3A3"/>
<path d="M30.2 54.3C24.1 54.3 19.2 59.2001 19.2 65.3001C19.2 71.4001 24.1 76.3001 30.2 76.3001C36.3 76.3001 41.2 71.4001 41.2 65.3001C41.2 59.3001 36.3 54.3 30.2 54.3ZM30.2 69.2C28.2 69.2 26.6 67.6 26.6 65.6C26.6 63.6 28.2 62 30.2 62C32.2 62 33.7999 63.6 33.7999 65.6C33.7999 67.6 32.2 69.2 30.2 69.2Z" fill="white"/>
<path d="M30.2001 54.3V54C23.9001 54 18.8 59.1 18.8 65.3C18.8 71.6 23.9001 76.7 30.2001 76.7C36.5001 76.7 41.5 71.6 41.5 65.3C41.6 59 36.5001 54 30.2001 54V54.3V54.7C33.1001 54.7 35.8001 55.9 37.7001 57.8C39.6001 59.7 40.8 62.4 40.8 65.3C40.8 68.2 39.6001 70.9 37.7001 72.8C35.8001 74.7 33.1001 75.9 30.2001 75.9C27.3001 75.9 24.6001 74.7 22.7001 72.8C20.8001 70.9 19.6 68.2 19.6 65.3C19.6 62.4 20.8001 59.7 22.7001 57.8C24.6001 55.9 27.3001 54.7 30.2001 54.7V54.3V54.3ZM30.2001 69.2V68.8C28.4001 68.8 27 67.3 27 65.6C27 63.8 28.5001 62.4 30.2001 62.4C32.0001 62.4 33.4001 63.9 33.4001 65.6C33.4001 67.4 31.9001 68.8 30.2001 68.8V69.2V69.6C32.4001 69.6 34.2001 67.8 34.2001 65.6C34.2001 63.4 32.4001 61.6 30.2001 61.6C28.0001 61.6 26.2001 63.4 26.2001 65.6C26.2001 67.8 28.0001 69.6 30.2001 69.6V69.2V69.2Z" fill="#A3A3A3"/>
</svg>
